<svg version="1.1" id="Layer_1" xmlns="http://www.w3.org/2000/svg" xmlns:xlink="http://www.w3.org/1999/xlink" x="0px" y="0px"
	 width="100%" viewBox="0 0 1024 1024" enable-background="new 0 0 1024 1024" xml:space="preserve">
<path fill="#000000" opacity="1.000000" stroke="none" 
	d="
M703.093323,716.883057 
	C717.094849,729.172119 732.159668,739.523254 746.473328,750.831604 
	C767.179688,767.190430 788.231262,783.161194 806.587158,802.295654 
	C812.766479,808.737000 817.599060,815.975403 821.508545,823.936768 
	C823.750916,828.503052 823.431580,833.307617 823.245422,838.121704 
	C823.169189,840.093689 821.981323,841.114197 820.042480,841.267517 
	C819.378662,841.320007 818.709106,841.362244 818.044861,841.337463 
	C797.232605,840.562622 776.456726,842.099121 755.667053,842.506042 
	C675.038635,844.084045 594.404358,843.504211 513.780823,843.058960 
	C483.656738,842.892578 453.482697,843.491394 423.394745,842.132935 
	C399.743011,841.065063 376.092804,842.504395 352.512695,841.164307 
	C330.365967,839.905640 308.209503,841.502991 286.134979,840.178406 
	C265.652252,838.949341 245.185974,840.220886 224.754349,839.201355 
	C217.047882,838.816833 209.278076,838.646118 200.756348,838.104004 
	C203.864639,831.895203 208.022125,827.422668 211.956360,822.912903 
	C234.523865,797.043823 259.365601,773.365906 283.684845,749.197327 
	C299.724243,733.257202 316.281677,717.838196 332.635162,702.215149 
	C333.470825,701.416809 334.571381,700.895752 335.951843,699.977234 
	C324.288879,687.804443 320.848114,674.240784 325.510590,659.047119 
	C330.295044,643.455688 341.164642,634.957458 358.131226,633.250854 
	C349.762207,626.901855 341.214203,621.899048 333.442139,615.794983 
	C316.408356,602.417053 300.843933,587.649719 286.786682,571.095947 
	C268.321289,549.351318 253.762589,525.313354 242.749023,499.172089 
	C234.562790,479.741669 228.756790,459.514893 225.563431,438.569031 
	C222.982803,421.642029 221.207001,404.644073 221.737366,387.552185 
	C222.963806,348.028320 231.034500,309.994171 247.077240,273.675995 
	C256.737793,251.806046 268.698761,231.318390 283.484650,212.664413 
	C305.463745,184.935440 331.962891,162.224792 362.479858,144.145203 
	C393.565826,125.728485 427.126434,114.284012 462.497253,107.950241 
	C473.221985,106.029785 484.134186,105.120995 495.070648,104.452751 
	C503.712341,103.924721 512.344238,103.346466 520.962158,103.717751 
	C557.321838,105.284271 592.553772,111.931625 626.179077,126.522339 
	C653.092285,138.200500 677.487549,153.795242 699.705322,172.691040 
	C724.174133,193.501358 744.173584,218.156998 760.095276,246.150497 
	C775.150757,272.620880 786.221619,300.564941 792.653870,330.330566 
	C795.699646,344.425079 797.628967,358.650024 798.502808,373.075806 
	C798.955200,380.544128 799.613770,388.003815 799.298828,395.462494 
	C797.751221,432.121338 792.203369,467.924194 777.152588,501.837341 
	C766.230835,526.446716 752.199036,549.023682 735.223450,569.863037 
	C715.568726,593.991333 692.368530,614.211548 667.091187,632.176636 
	C666.827759,632.363953 666.601135,632.602966 666.109497,633.036255 
	C667.972168,633.522644 669.643738,634.194275 671.366333,634.372253 
	C687.638550,636.053589 699.069214,653.310730 699.444275,668.906799 
	C699.715210,680.173218 696.771423,689.884216 688.409973,697.631104 
	C686.072205,699.797119 686.553284,701.403503 688.605469,703.411804 
	C693.236816,707.944153 697.546143,712.814026 703.093323,716.883057 
M257.881927,487.776520 
	C266.154572,507.974792 276.249359,527.152222 288.930450,544.990906 
	C303.186920,565.045654 319.806122,582.835449 339.612457,597.360962 
	C353.111847,607.260986 367.443420,616.025574 381.383698,625.326599 
	C382.527008,626.089478 383.656433,626.646057 385.063171,626.634827 
	C391.208954,626.586121 397.335907,627.312988 403.444489,627.486694 
	C420.200867,627.963196 436.877472,629.332458 453.582489,630.524719 
	C472.771851,631.894348 491.998566,633.252808 511.223328,633.498352 
	C542.933899,633.903442 574.680908,634.611816 606.233398,629.748962 
	C628.663391,626.292175 650.598083,621.402588 670.714783,610.480042 
	C681.837585,604.440918 692.089722,597.327271 699.982910,586.994751 
	C704.033081,581.692993 706.692383,575.457520 711.263489,570.648071 
	C718.942200,562.568970 725.761414,553.806763 732.537659,545.004272 
	C747.329224,525.789612 759.014099,504.704193 768.138794,482.346466 
	C776.614441,461.578979 782.109375,439.940033 784.891602,417.538300 
	C787.512329,396.437073 787.462524,375.428772 784.397827,354.532928 
	C779.938110,324.124786 770.265381,295.412415 755.366455,268.340668 
	C738.383118,237.481323 715.613342,211.579086 689.335144,188.594070 
	C667.845886,169.797882 644.016479,154.581543 617.697205,143.217072 
	C588.452271,130.589279 557.889404,123.635872 526.272522,121.492775 
	C507.023468,120.188011 487.717529,121.501808 468.662994,124.549988 
	C437.664032,129.508942 408.222107,139.195892 380.660919,154.506378 
	C348.042236,172.626389 320.011871,196.054443 296.767761,225.258301 
	C282.519318,243.160049 270.653503,262.530823 261.802917,283.574371 
	C248.992111,314.033844 241.526550,345.900208 239.463684,378.893097 
	C238.352295,396.668396 239.937088,414.409210 242.636063,431.989410 
	C245.537292,450.886902 250.800232,469.195740 257.881927,487.776520 
M740.692444,769.808472 
	C730.133118,761.163330 720.134949,751.881287 711.006653,741.767273 
	C708.004761,738.441223 704.891052,735.674744 700.904724,734.023804 
	C693.535156,730.971741 685.786865,728.974548 677.989380,727.481201 
	C654.219299,722.928833 630.098572,721.201660 606.011963,719.469971 
	C590.124817,718.327759 574.148376,717.640930 558.255005,717.580017 
	C522.311279,717.442139 486.362885,716.586853 450.399750,718.148865 
	C428.348358,719.106750 406.295471,719.831604 384.255890,721.196899 
	C369.854584,722.089050 355.520752,723.395569 341.271637,725.490112 
	C334.291107,726.516296 327.284058,727.711609 321.733643,733.127930 
	C310.084839,744.495117 298.294769,755.731384 286.213074,766.633972 
	C281.638214,770.762207 277.477844,775.313660 272.816772,779.299622 
	C258.657013,791.408325 245.952042,804.987427 232.883224,818.202271 
	C231.503586,819.597351 230.659729,821.267944 229.999329,823.454346 
	C419.051514,823.454346 607.612976,823.454346 796.382385,823.454346 
	C795.201477,820.376526 793.174133,818.270325 791.095703,816.165283 
	C775.205200,800.070862 757.783630,785.643921 740.692444,769.808472 
M615.499817,688.658081 
	C628.653992,687.957031 641.742981,689.661682 654.879089,689.884888 
	C659.944336,689.971069 665.278137,689.801941 670.202759,691.022888 
	C674.113647,691.992432 676.981995,690.870239 679.187561,688.480591 
	C683.572021,683.730164 687.792419,678.675171 689.246826,672.103333 
	C690.796021,665.103577 689.382507,658.754822 683.735962,654.025269 
	C677.348877,648.675354 669.826843,647.411072 661.688965,648.663940 
	C655.093445,649.679382 647.836060,649.714294 642.097107,647.639526 
	C635.600159,645.290710 629.480164,645.975403 623.189575,645.349426 
	C618.485779,644.881287 613.946838,646.314514 609.299988,646.365295 
	C554.512756,646.964355 499.715424,645.309937 444.930267,647.289612 
	C429.951874,647.830811 414.929047,647.059326 399.941589,647.455994 
	C385.036469,647.850647 370.015137,645.542236 355.219574,649.278992 
	C352.564850,649.949402 349.824524,651.015625 346.702393,649.867798 
	C345.126709,654.555237 343.391937,658.862000 342.237061,663.319031 
	C339.311737,674.608643 342.903259,681.154602 353.819611,684.967041 
	C355.694824,685.622009 357.593079,686.273743 359.533142,686.670166 
	C377.625732,690.366577 396.117523,689.760071 414.400879,691.333679 
	C428.893250,692.581055 443.616455,691.888367 458.262543,690.804077 
	C474.168213,689.626526 490.155121,690.753906 506.143372,689.906616 
	C525.886353,688.860291 545.715271,689.515747 565.511047,688.779785 
	C581.819641,688.173401 598.168762,688.656982 615.499817,688.658081 
z"/>
<path fill="#000000" opacity="1.000000" stroke="none" 
	d="
M625.540771,205.257690 
	C633.839600,201.591995 642.067566,200.494171 650.570618,202.590912 
	C661.580994,205.305893 665.897339,213.021317 661.974060,223.579803 
	C660.134399,228.530777 657.531311,233.188705 653.997131,237.272430 
	C652.781616,238.676971 651.569275,239.820770 649.830811,239.111511 
	C640.043640,235.118607 629.834045,231.810333 622.094055,224.096878 
	C615.048096,217.075089 616.282654,210.129562 625.540771,205.257690 
z"/>
<path fill="#000000" opacity="1.000000" stroke="none" 
	d="
M651.646179,261.733765 
	C654.007080,267.032440 654.605896,272.067688 651.178894,276.632751 
	C648.080750,280.759796 644.170593,283.395844 638.446289,282.570831 
	C630.393127,281.410065 625.892578,271.714722 629.807312,264.999908 
	C634.475464,256.993042 642.636902,252.633759 651.646179,261.733765 
z"/>
<path fill="#000000" opacity="1.000000" stroke="none" 
	d="
M677.685669,265.722412 
	C677.214966,260.522095 679.388672,257.148804 683.670715,255.441681 
	C688.170837,253.647644 692.612610,254.162643 696.005798,257.937683 
	C699.003296,261.272430 701.675293,264.953949 700.536804,269.889282 
	C699.568237,274.087952 697.087769,277.722748 692.810303,278.041809 
	C687.450439,278.441681 682.951782,275.521698 679.755249,271.156921 
	C678.719238,269.742340 678.366577,267.827301 677.685669,265.722412 
z"/>
</svg>